<svg width="30" height="30" viewBox="0 0 30 30" fill="none" xmlns="http://www.w3.org/2000/svg">
<g clip-path="url(#clip0_367_12827)">
<path d="M15.0002 0.833344C7.18016 0.833344 0.833496 7.18001 0.833496 15C0.833496 22.82 7.18016 29.1667 15.0002 29.1667C22.8202 29.1667 29.1668 22.82 29.1668 15C29.1668 7.18001 22.8202 0.833344 15.0002 0.833344ZM8.41266 24.2083C10.2685 22.8767 12.5352 22.0833 15.0002 22.0833C17.4652 22.0833 19.7318 22.8767 21.5877 24.2083C19.7318 25.54 17.4652 26.3333 15.0002 26.3333C12.5352 26.3333 10.2685 25.54 8.41266 24.2083ZM23.6985 22.2533C21.3043 20.3833 18.2868 19.25 15.0002 19.25C11.7135 19.25 8.696 20.3833 6.30183 22.2533C4.6585 20.2842 3.66683 17.7625 3.66683 15C3.66683 8.73834 8.7385 3.66668 15.0002 3.66668C21.2618 3.66668 26.3335 8.73834 26.3335 15C26.3335 17.7625 25.3418 20.2842 23.6985 22.2533Z" fill="black"/>
<path d="M15.0003 6.5C12.2662 6.5 10.042 8.72417 10.042 11.4583C10.042 14.1925 12.2662 16.4167 15.0003 16.4167C17.7345 16.4167 19.9587 14.1925 19.9587 11.4583C19.9587 8.72417 17.7345 6.5 15.0003 6.5ZM15.0003 13.5833C13.8245 13.5833 12.8753 12.6342 12.8753 11.4583C12.8753 10.2825 13.8245 9.33333 15.0003 9.33333C16.1762 9.33333 17.1253 10.2825 17.1253 11.4583C17.1253 12.6342 16.1762 13.5833 15.0003 13.5833Z" fill="black"/>
</g>
<defs>
<clipPath id="clip0_367_12827">
<rect width="30" height="30" fill="white"/>
</clipPath>
</defs>
</svg>
