<svg width="152" height="28" viewBox="0 0 152 28" fill="none" xmlns="http://www.w3.org/2000/svg">
<g clip-path="url(#clip0_285_5909)">
<g clip-path="url(#clip1_285_5909)">
<path d="M23.3348 2L24.3358 1L23.3348 0L21.3105 2.02222L22.3116 3.02222L23.3348 2Z" fill="white"/>
<path d="M19.4419 5.88886L21.4662 3.86664L20.4652 2.86664L18.4409 4.88886L18.9525 5.37775L19.4419 5.88886Z" fill="white"/>
<path d="M18.5968 6.73334L18.1074 6.22223L17.5958 5.73334L15.5938 7.73334L16.5948 8.73334L18.5968 6.73334Z" fill="white"/>
<path d="M23.3221 5.72813L22.3154 4.72247L20.3021 6.73378L21.3088 7.73943L23.3221 5.72813Z" fill="white"/>
<path d="M23.1567 3.86664L24.1578 4.86664L25.181 3.84442L26.182 2.84442L25.181 1.84442L24.18 2.84442L23.1567 3.86664Z" fill="white"/>
<path d="M19.442 7.57776L17.4399 9.57776L18.441 10.5778L20.443 8.57776L19.442 7.57776Z" fill="white"/>
<path d="M25.1591 7.55554L24.6697 7.04443L24.1581 6.55554L22.1338 8.57776L23.1348 9.57776L25.1591 7.55554Z" fill="white"/>
<path d="M25.0029 5.71113L25.5146 6.20001L26.0039 6.71113L28.0282 4.6889L27.0272 3.6889L26.0262 4.6889L25.0029 5.71113Z" fill="white"/>
<path d="M22.3138 10.4202L21.3071 9.41455L19.2938 11.4259L20.3005 12.4315L22.3138 10.4202Z" fill="white"/>
<path d="M5.8801 19.4217L4.88916 18.4318L2.87582 20.4431L3.86676 21.433L5.8801 19.4217Z" fill="white"/>
<path d="M3.87046 23.1333L2.8472 24.1555L1.84619 25.1555L2.8472 26.1555L4.87148 24.1333L3.87046 23.1333Z" fill="white"/>
<path d="M3.02528 22.2889L2.02427 21.2889L0 23.3111L1.00101 24.3111L2.00203 23.3111L3.02528 22.2889Z" fill="white"/>
<path d="M5.71714 24.9778L3.69287 27L4.69388 28L6.71816 25.9778L5.71714 24.9778Z" fill="white"/>
<path d="M8.58646 20.4222L10.5885 18.4222L9.58748 17.4222L7.58545 19.4222L8.07483 19.9334L8.58646 20.4222Z" fill="white"/>
<path d="M5.73926 17.5778L6.74027 18.5778L8.7423 16.5778L7.74128 15.5778L5.73926 17.5778Z" fill="white"/>
<path d="M7.22948 20.7778L6.74009 20.2667L4.71582 22.2889L5.71683 23.2889L7.7411 21.2667L7.22948 20.7778Z" fill="white"/>
<path d="M8.58628 22.1111L6.56201 24.1333L7.56302 25.1333L9.5873 23.1111L8.58628 22.1111Z" fill="white"/>
<path d="M9.42556 21.2841L10.4165 22.274L12.4298 20.2627L11.4389 19.2728L9.42556 21.2841Z" fill="white"/>
<path d="M20.0869 15.5555L10.5884 6.06665L6.07275 10.5778L15.5713 20.0667C15.9717 19.0444 16.5945 18.1333 17.3731 17.3555C18.1516 16.5778 19.0859 15.9778 20.0869 15.5555Z" fill="white"/>
<path d="M27.9395 18.1111C26.0487 16.2889 23.3793 15.7556 21.0214 16.4889C19.9981 16.8222 19.0193 17.3778 18.2185 18.2C17.3955 19.0222 16.8394 19.9778 16.5057 21C15.7494 23.3556 16.3055 26.0222 18.1296 27.9111L22.623 23.4222L23.4905 24.2889C23.3126 24.8 23.4238 25.3778 23.8242 25.7778C24.3803 26.3333 25.2701 26.3333 25.8262 25.7778C26.3824 25.2222 26.3824 24.3333 25.8262 23.7778C25.4258 23.3778 24.8475 23.2667 24.3358 23.4445L23.4683 22.5778L27.9395 18.1111Z" fill="white"/>
<path d="M5.828 9.1333L9.14246 5.82219C8.3639 5.22219 7.3184 5.17775 6.49534 5.64441L5.16066 4.31108C4.91596 4.06664 4.5378 4.06664 4.31536 4.31108C4.07066 4.55552 4.07066 4.9333 4.31536 5.15552L5.65004 6.48886C5.1829 7.31108 5.22739 8.37775 5.828 9.1333Z" fill="white"/>
</g>
<path d="M42.4372 21.7208H45.0318L50.6272 11.679H50.768V24.2819H54.5272V4.58677H50.7084L43.9701 17.1623H43.8618L37.1776 4.58677H33.4185L42.4372 21.7208ZM33.4185 24.2819H37.0639V16.5439L33.4185 9.62136V24.2819ZM57.6472 10.9183H60.9026C60.9026 9.1179 61.7693 7.5145 64.1363 7.5145C66.0863 7.5145 67.3105 8.41197 67.3105 10.5243C67.3105 16.0678 57.3655 14.8584 57.3655 24.2819H70.7338V20.8507H61.7368V20.7905C63.1884 17.0529 70.7338 16.9106 70.7338 10.2397C70.7338 6.58419 68.5076 4.30768 64.1363 4.30768C59.5105 4.30768 57.6472 7.03293 57.6472 10.9183ZM82.6288 21.7208H85.218L90.8134 11.679H90.9542V24.2819H94.7134V4.58677H90.9001L84.1563 17.1623H84.048L77.3638 4.58677H73.6047L82.6288 21.7208ZM73.6047 24.2819H77.2501V16.5439L73.6047 9.62136V24.2819ZM98.4726 24.2819H106.495C112.48 24.2819 114.154 21.9178 114.154 18.7931C114.154 15.9255 111.505 14.3221 108.331 14.1799V14.043C110.752 13.7585 112.426 12.27 112.426 9.62136C112.426 6.86328 111.169 4.58677 105.742 4.58677H98.4726V7.76622H105.325C107.8 7.76622 108.862 8.32988 108.862 10.0427C108.862 12.073 107.302 12.4944 105.184 12.4944H98.4726V15.9255H105.547C108.304 15.9255 110.167 16.6315 110.167 18.5961C110.167 20.5661 108.748 21.0751 105.601 21.0751H98.4726V24.2819ZM125.68 4.30768V7.90851C129.358 7.90851 132.143 10.0427 132.143 14.4371C132.143 18.8259 129.358 20.9875 125.68 20.9875C122.116 20.9875 119.359 18.8259 119.359 14.4371H115.573C115.573 20.9328 120.058 24.561 125.68 24.561C131.444 24.561 135.902 21.2173 135.902 14.4371C135.902 7.96323 131.444 4.30768 125.68 4.30768ZM136.514 4.58677V8.27516H152V4.58677H136.514ZM142.391 10.776V24.2819H146.15V10.776H142.391Z" fill="white"/>
</g>
<defs>
<clipPath id="clip0_285_5909">
<rect width="152" height="28" fill="white"/>
</clipPath>
<clipPath id="clip1_285_5909">
<rect width="28.0284" height="28" fill="white"/>
</clipPath>
</defs>
</svg>
