<svg width="20" height="20" viewBox="0 0 20 20" fill="none" xmlns="http://www.w3.org/2000/svg">
<g clip-path="url(#clip0_331_9615)">
<path d="M10 19C14.9706 19 19 14.9706 19 10C19 5.02944 14.9706 1 10 1C5.02944 1 1 5.02944 1 10C1 14.9706 5.02944 19 10 19Z" stroke="#4CAF50" stroke-width="2"/>
<path d="M8.44605 14C8.32912 14.0007 8.21321 13.9782 8.10496 13.934C7.99671 13.8898 7.89825 13.8247 7.81523 13.7423L4.2613 10.1884C4.09399 10.0211 4 9.79417 4 9.55757C4 9.32096 4.09399 9.09405 4.2613 8.92674C4.4286 8.75944 4.65551 8.66545 4.89212 8.66545C5.12872 8.66545 5.35564 8.75944 5.52294 8.92674L8.44605 11.8587L14.0346 6.2613C14.2019 6.09399 14.4288 6 14.6654 6C14.902 6 15.129 6.09399 15.2963 6.2613C15.4636 6.4286 15.5576 6.65551 15.5576 6.89212C15.5576 7.12872 15.4636 7.35564 15.2963 7.52294L9.07687 13.7423C8.99385 13.8247 8.8954 13.8898 8.78715 13.934C8.6789 13.9782 8.56298 14.0007 8.44605 14Z" fill="#4CAF50"/>
</g>
<defs>
<clipPath id="clip0_331_9615">
<rect width="20" height="20" fill="white"/>
</clipPath>
</defs>
</svg>
