<svg width="20" height="20" viewBox="0 0 20 20" fill="none" xmlns="http://www.w3.org/2000/svg">
<g clip-path="url(#clip0_538_12814)">
<path d="M11.4286 11.7143C13.5556 11.7143 15.2857 9.9842 15.2857 7.85714C15.2857 5.73009 13.5554 4 11.4286 4H7.57143C7.09813 4 6.71429 4.38384 6.71429 4.85714V10H5.85714C5.38384 10 5 10.383 5 10.8571C5 11.3313 5.38384 11.7143 5.85714 11.7143H6.71429V12.5714H5.85714C5.38384 12.5714 5 12.9553 5 13.4286C5 13.9019 5.38384 14.2857 5.85714 14.2857H6.71429V15.1429C6.71429 15.6162 7.09813 16 7.57143 16C8.04473 16 8.42857 15.6162 8.42857 15.1429V14.2857H12.7143C13.1876 14.2857 13.5714 13.9019 13.5714 13.4286C13.5714 12.9553 13.1876 12.5714 12.7143 12.5714H8.42857V11.7143H11.4286ZM8.42857 5.71429H11.4286C12.6098 5.71429 13.5714 6.67589 13.5714 7.85714C13.5714 9.03839 12.6098 10 11.4286 10H8.42857V5.71429Z" fill="#455A7D"/>
<path d="M10 0C4.48 0 0 4.48 0 10C0 15.52 4.48 20 10 20C15.52 20 20 15.52 20 10C20 4.48 15.52 0 10 0ZM10 18C5.58 18 2 14.42 2 10C2 5.58 5.58 2 10 2C14.42 2 18 5.58 18 10C18 14.42 14.42 18 10 18Z" fill="#50B953"/>
</g>
<defs>
<clipPath id="clip0_538_12814">
<rect width="20" height="20" fill="white"/>
</clipPath>
</defs>
</svg>
